# xmcd CD database file
#
# Track frame offsets:
#	150
#	16005
#	35090
#	52479
#	72320
#	92592
#	108027
#	125933
#	143792
#	160993
#	180393
#	193683
#
# Disc length: 2828 seconds
#
# Revision: 0
# Processed by: cddbd v1.5.1PL0 Copyright (c) Steve Scherf et al.
# Submitted via: CDex 1.50
#
DISCID=a90b0a0c
DTITLE=Andreas Johnson - Liebling
DYEAR=1999
DGENRE=Jazz
TTITLE0=Glorious
TTITLE1=People
TTITLE2=The games we play
TTITLE3=Do you believe in heaven
TTITLE4=Should have been me
TTITLE5=Breathing
TTITLE6=Patiently
TTITLE7=Spaceless
TTITLE8=Please (do me right)
TTITLE9=Safe from harm
TTITLE10=Unbreakable
TTITLE11=Hidden Track
EXTD=YEAR: 1999
EXTT0=
EXTT1=
EXTT2=
EXTT3=
EXTT4=
EXTT5=
EXTT6=
EXTT7=
EXTT8=
EXTT9=
EXTT10=
EXTT11=
PLAYORDER=
